HIERARCHY
ROOT Hips
{
    OFFSET 0.0 0.0 0.0
    CHANNELS 6 Xposition Yposition Zposition Zrotation Xrotation Yrotation
    JOINT Spine
    {
        OFFSET 0.0 5.0 0.0
        CHANNELS 3 Zrotation Xrotation Yrotation
        JOINT Chest
        {
            OFFSET 0.0 5.0 0.0
            CHANNELS 3 Zrotation Xrotation Yrotation
            JOINT Neck
            {
                OFFSET 0.0 8.0 0.0
                CHANNELS 3 Zrotation Xrotation Yrotation
                JOINT Head
                {
                    OFFSET 0.0 5.0 0.0
                    CHANNELS 3 Zrotation Xrotation Yrotation
                    End Site
                    {
                        OFFSET 0.0 3.0 0.0
                    }
                }
            }
            JOINT LeftShoulder
            {
                OFFSET -5.0 0.0 0.0
                CHANNELS 3 Zrotation Xrotation Yrotation
                JOINT LeftArm
                {
                    OFFSET 0.0 -10.0 0.0
                    CHANNELS 3 Zrotation Xrotation Yrotation
                    JOINT LeftForeArm
                    {
                        OFFSET 0.0 -10.0 0.0
                        CHANNELS 3 Zrotation Xrotation Yrotation
                        End Site
                        {
                            OFFSET 0.0 -3.0 0.0
                        }
                    }
                }
            }
        }
    }
}

MOTION
Frames: 44
Frame Time: 0.033333
970.000000 442.938926 124.036337 0.000000 0.000000 0.000000 0.000000 0.000000 0.000000 29.678605 -13.876024 0.000000 180.000000 25.177369 0.000000 29.744881 -5.538871 -0.000000 150.255119 16.513681 30.000000 19.983107 4.492140 0.000000 18.000000 -0.696665 0.000000
1354.522934 467.411410 145.372606 0.000000 0.000000 0.000000 0.000000 0.000000 0.000000 150.622570 14.973163 4.973798 -29.377430 -10.794262 4.973798 140.176400 4.541042 3.759997 -12.221629 -6.652982 29.763441 132.794256 3.045529 -3.759997 -2.626015 0.015367 0.313953
969.997807 442.887864 130.956046 0.000000 0.000000 0.000000 0.000000 0.000000 0.000000 31.061399 16.285261 9.635073 180.000000 -0.314783 9.635073 30.285790 -17.767476 7.460697 149.714210 -20.165769 29.057495 19.151579 10.725271 -7.460697 18.000000 -0.502495 0.626666
1246.736984 514.278152 110.371797 0.000000 0.000000 0.000000 0.000000 0.000000 0.000000 143.557092 7.620761 13.690942 -36.442908 -7.063860 13.690942 133.761037 -0.287155 11.043737 -156.950665 -5.931659 27.893295 0.000000 0.000000 0.000000 1.928484 0.403558 0.936907
1245.221100 458.637464 109.111134 0.000000 0.000000 0.000000 0.000000 0.000000 0.000000 160.701064 0.615517 16.886559 -19.298936 -5.872364 16.886559 140.193827 2.822997 14.452610 -157.554825 -5.579353 26.289200 29.500467 4.538461 -14.452610 -15.049953 -0.453846 1.243449
1257.365570 418.514181 118.652921 0.000000 0.000000 0.000000 0.000000 0.000000 0.000000 -143.710676 3.365925 19.021130 36.289324 2.685613 19.021130 163.220413 5.439446 17.633558 11.688054 -3.640101 24.270510 152.038385 2.871920 -17.633558 -2.339948 0.047887 1.545085
1275.099564 408.163741 115.345335 0.000000 0.000000 0.000000 0.000000 0.000000 0.000000 -132.929531 -3.123378 19.960535 47.070469 1.389814 19.960535 173.491912 3.073116 20.536413 -160.709681 -4.044534 21.869059 33.138793 7.126425 -20.536413 -14.686121 -0.712643 1.840623
1290.611115 384.880857 96.742680 0.000000 0.000000 0.000000 0.000000 0.000000 0.000000 -132.705235 -9.215815 19.645745 47.294765 13.347729 19.645745 -173.778854 -5.105082 23.115397 20.496835 -1.685247 19.122720 -161.220290 -3.339603 -23.115397 1.723235 0.407968 2.128896
1302.817154 380.305352 97.382412 0.000000 0.000000 0.000000 0.000000 0.000000 0.000000 -131.493915 -3.406497 18.096541 48.506085 -3.068239 18.096541 -165.393697 1.516735 25.329838 23.154815 -0.740572 16.074804 -178.200316 1.014938 -25.329838 0.138141 0.003522 2.408768
1304.997711 379.563582 85.525175 0.000000 0.000000 0.000000 0.000000 0.000000 0.000000 -126.727972 0.473206 15.410265 53.272028 3.503899 15.410265 -160.219593 -1.502518 27.144812 28.448880 2.279090 12.773379 -174.368770 -0.266526 -27.144812 0.079526 0.118507 2.679134
1311.668472 386.890390 79.255360 0.000000 0.000000 0.000000 0.000000 0.000000 0.000000 -122.308728 -5.215509 11.755705 57.691272 4.176610 11.755705 -158.801130 -3.215081 28.531695 150.942637 -5.019690 9.270510 -154.878332 -3.532946 -28.531695 2.695409 0.535901 2.938926
1305.131836 395.180186 66.851444 0.000000 0.000000 0.000000 0.000000 0.000000 0.000000 -125.112810 -17.116834 7.362491 54.887190 -3.149413 7.362491 -146.487292 2.099693 29.468618 -175.167369 4.252779 5.621439 -159.224034 -4.406592 -29.468618 1.782042 0.567559 3.187120
1296.320457 392.734526 58.317280 0.000000 0.000000 0.000000 0.000000 0.000000 0.000000 -131.035750 0.535379 2.506665 48.964250 -0.299847 2.506665 -128.969563 1.637771 29.940802 38.856147 -4.669784 1.883716 -134.776850 0.951968 -29.940802 3.458429 0.084921 3.422736
1306.963577 386.612041 88.891204 0.000000 0.000000 0.000000 0.000000 0.000000 0.000000 -124.469622 -3.691849 -2.506665 55.530378 2.851412 -2.506665 -109.994856 -5.429220 29.940802 37.691309 2.065105 -1.883716 -118.274788 -0.769986 -29.940802 5.098336 0.020547 3.644843
969.892723 442.572198 71.336674 0.000000 0.000000 0.000000 0.000000 0.000000 0.000000 41.287575 54.419999 -7.362491 180.000000 -31.171087 -7.362491 30.974696 20.882090 29.468618 149.025304 -16.849712 -5.621439 15.072869 -0.473644 -29.468618 18.000000 -0.267533 3.852566
969.876883 442.545207 59.171865 0.000000 0.000000 0.000000 0.000000 0.000000 0.000000 42.241956 -27.333565 -11.755705 180.000000 2.812874 -11.755705 30.826133 0.827000 28.531695 149.173867 -0.907740 -9.270510 14.823070 3.881400 -28.531695 18.000000 0.130383 4.045085
969.859960 442.518116 51.730330 0.000000 0.000000 0.000000 0.000000 0.000000 0.000000 43.199779 38.546007 -15.410265 180.000000 -29.632590 -15.410265 30.649504 1.995253 27.144812 149.350496 -9.833645 -12.773379 14.587557 -0.396130 -27.144812 18.000000 -0.085347 4.221640
969.841956 442.490926 71.433305 0.000000 0.000000 0.000000 0.000000 0.000000 0.000000 44.157210 -19.876726 -18.096541 180.000000 3.773610 -18.096541 30.446417 -0.334686 25.329838 149.553583 12.997506 -16.074804 14.366154 -8.727354 -25.329838 18.000000 0.078914 4.381533
969.822873 442.463637 56.683306 0.000000 0.000000 0.000000 0.000000 0.000000 0.000000 45.110117 -18.115946 -19.645745 180.000000 -2.800109 -19.645745 30.218633 12.139038 23.115397 149.781367 8.943023 -19.122720 14.158653 -2.840203 -23.115397 18.000000 0.162608 4.524135
969.802712 442.436251 17.178603 0.000000 0.000000 0.000000 0.000000 0.000000 0.000000 46.054109 -26.054974 -19.960535 180.000000 6.822282 -19.960535 29.968037 7.654051 20.536413 150.031963 1.179599 -21.869059 13.964823 -5.141567 -20.536413 18.000000 0.445909 4.648882
1187.040939 541.658249 45.625666 0.000000 0.000000 0.000000 0.000000 0.000000 0.000000 82.806623 5.139438 -19.021130 -97.193377 -14.423547 -19.021130 45.395981 5.165162 17.633558 -156.144455 -2.774065 -24.270510 0.000000 0.000000 0.000000 0.000000 0.000000 0.000000
1182.242889 522.024286 67.177742 0.000000 0.000000 0.000000 0.000000 0.000000 0.000000 -105.721938 -13.142004 -16.886559 74.278062 5.725780 -16.886559 -155.708006 -2.333770 14.452610 -157.302521 -2.178932 -26.289200 0.000000 0.000000 0.000000 2.684983 0.271430 4.842916
1180.914459 527.065626 43.578072 0.000000 0.000000 0.000000 0.000000 0.000000 0.000000 88.055617 -7.604985 -13.690942 -91.944383 4.017054 -13.690942 -158.862018 -2.680129 11.043737 -151.747289 -1.977352 -27.893295 0.000000 0.000000 0.000000 0.000000 0.000000 0.000000
1236.800194 541.387432 57.924162 0.000000 0.000000 0.000000 0.000000 0.000000 0.000000 -85.588400 3.375685 -9.635073 94.411600 4.841015 -9.635073 -159.297106 1.632465 7.460697 -157.915391 -2.267582 -29.057495 26.607362 1.423579 -7.460697 14.926890 0.761534 4.960574
1161.066513 575.006626 53.787808 0.000000 0.000000 0.000000 0.000000 0.000000 0.000000 -81.021168 -2.237989 -4.973798 98.978832 -16.323828 -4.973798 -102.851701 10.695133 3.759997 -157.041007 -2.743598 -29.763441 21.429890 1.491939 -3.759997 10.859432 0.790294 4.990134
1255.636253 512.645942 42.958686 0.000000 0.000000 0.000000 0.000000 0.000000 0.000000 77.832564 6.308454 -0.000000 -102.167436 -2.042173 -0.000000 -158.264834 -2.640473 0.000000 -130.745502 -7.189418 -30.000000 -157.699225 -1.564988 -0.000000 0.000000 0.000000 0.000000
1265.118484 521.473864 37.273934 0.000000 0.000000 0.000000 0.000000 0.000000 0.000000 64.078276 -1.760134 4.973798 -115.921724 2.102636 4.973798 41.397952 -0.062006 -3.759997 -139.329851 -0.145525 -29.763441 20.223252 2.092333 3.759997 -16.047574 -0.170295 4.990134
1228.099480 522.138258 40.311422 0.000000 0.000000 0.000000 0.000000 0.000000 0.000000 71.050901 2.606220 9.635073 -108.949099 -2.090012 9.635073 150.099970 2.549016 -7.460697 -139.894702 -1.613363 -29.057495 -156.275691 -2.686717 7.460697 0.000000 0.000000 0.000000
1240.357246 528.695873 59.020079 0.000000 0.000000 0.000000 0.000000 0.000000 0.000000 65.413351 0.471544 13.690942 -114.586649 4.394936 13.690942 147.242328 9.161862 -11.043737 -154.470720 -1.983876 -27.893295 25.557225 2.202777 11.043737 -15.444278 -0.220278 4.911436
1231.815262 551.380248 52.169099 0.000000 0.000000 0.000000 0.000000 0.000000 0.000000 56.412506 -1.360875 16.886559 -123.587494 1.279201 16.886559 -153.392336 -6.316590 -14.452610 -154.784582 -2.683927 -26.289200 24.191555 3.864699 14.452610 -15.580844 -0.386470 4.842916
1221.475182 508.360147 64.994298 0.000000 0.000000 0.000000 0.000000 0.000000 0.000000 77.450622 -11.113634 19.021130 -102.549378 3.800782 19.021130 -156.789784 -3.198274 -17.633558 -125.590168 -0.880541 -24.270510 -160.017240 -3.154150 17.633558 1.833434 0.310719 4.755283
969.477684 442.100429 67.318126 0.000000 0.000000 0.000000 0.000000 0.000000 0.000000 54.932575 -28.745157 19.960535 180.000000 -29.482545 19.960535 25.919122 16.560400 -20.536413 154.080878 -0.056774 -21.869059 12.612867 1.650811 20.536413 18.000000 -0.235930 4.648882
1480.140495 518.878891 43.792747 0.000000 0.000000 0.000000 0.000000 0.000000 0.000000 -110.621767 86.535014 19.645745 69.378233 86.155830 19.645745 -158.235933 -2.856690 -23.115397 166.031448 -3.517000 -19.122720 -155.186432 -2.323654 23.115397 2.641553 0.334348 4.524135
1271.640472 556.840560 68.342916 0.000000 0.000000 0.000000 0.000000 0.000000 0.000000 -94.404719 -15.812410 18.096541 85.595281 16.499307 18.096541 -62.417786 2.302431 -25.329838 23.992813 6.128252 -16.074804 -76.856107 -1.255550 25.329838 7.708835 0.249725 4.381533
1258.556786 530.268441 71.694970 0.000000 0.000000 0.000000 0.000000 0.000000 0.000000 78.355945 -2.298263 15.410265 -101.644055 0.904520 15.410265 35.068294 -2.558404 -27.144812 -54.090640 -1.267221 -12.773379 35.848220 -0.284645 27.144812 -8.104639 -0.135280 4.221640
1250.800209 527.150567 71.330621 0.000000 0.000000 0.000000 0.000000 0.000000 0.000000 72.417769 5.095335 11.755705 -107.582231 -10.248356 11.755705 24.571109 -3.101717 -28.531695 -39.196117 -1.447069 -9.270510 10.411117 -5.783568 28.531695 -9.048616 2.091544 4.045085
1243.466148 571.776259 91.274191 0.000000 0.000000 0.000000 0.000000 0.000000 0.000000 86.301473 -12.689103 7.362491 -93.698527 2.325585 7.362491 24.553534 0.579980 -29.468618 -153.460385 -3.514359 -5.621439 19.510484 3.331939 29.468618 -10.109500 -3.163819 3.852566
1261.883812 566.052918 110.737839 0.000000 0.000000 0.000000 0.000000 0.000000 0.000000 94.015209 4.036190 2.506665 -85.984791 9.630182 2.506665 38.959993 -4.517402 -29.940802 -154.008305 -3.849800 -1.883716 20.870951 3.459043 29.940802 -10.872440 -0.288852 3.644843
1284.436798 527.190542 91.032022 0.000000 0.000000 0.000000 0.000000 0.000000 0.000000 111.186365 -11.318304 -2.506665 -68.813635 20.503516 -2.506665 58.506163 -5.771362 -29.940802 -19.138727 9.161037 1.883716 51.457372 -15.094846 29.940802 -5.203198 1.152631 3.422736
1272.860069 533.494012 113.778179 0.000000 0.000000 0.000000 0.000000 0.000000 0.000000 72.301471 -17.047599 -7.362491 -107.698529 23.620614 -7.362491 78.802573 -1.630824 -29.468618 -154.772375 -3.900219 5.621439 26.927455 3.513306 29.468618 -15.307255 -0.351331 3.187120
1255.264664 498.243735 113.044024 0.000000 0.000000 0.000000 0.000000 0.000000 0.000000 164.596971 30.498697 -11.755705 -15.403029 -67.437289 -11.755705 125.849126 11.725902 -28.531695 -156.067666 -5.655344 9.270510 33.087561 4.680087 28.531695 -14.691244 -0.468009 2.938926
1259.202232 470.407684 125.793915 0.000000 0.000000 0.000000 0.000000 0.000000 0.000000 -139.980397 24.271325 -15.410265 40.019603 -15.977680 -15.410265 165.887722 3.780677 -27.144812 -157.901492 -5.803507 12.773379 35.196094 5.476979 27.144812 -14.480391 -0.547698 2.679134
1236.502075 429.951335 116.232738 0.000000 0.000000 0.000000 0.000000 0.000000 0.000000 -113.295066 -5.610822 -18.096541 66.704934 2.100353 -18.096541 -174.664169 -5.319867 -25.329838 -159.007335 -5.759816 16.074804 32.868990 6.577897 25.329838 -14.713101 -0.657790 2.408768
1253.359451 413.942538 123.239208 0.000000 0.000000 0.000000 0.000000 0.000000 0.000000 -123.348580 -3.528223 -19.645745 56.651420 -0.170599 -19.645745 -167.815074 3.432260 -23.115397 -159.603180 -5.248116 19.122720 32.791747 6.680377 23.115397 -14.720825 -0.668038 2.128896
